# xmcd CD database file
#
# Track frame offsets:
#	150
#	12730
#	25800
#	40597
#	57050
#	71012
#	83582
#	99895
#	115235
#	130757
#	145185
#
# Disc length: 2156 seconds
#
# Revision: 4
# Processed by: cddbd v1.5.2PL0 Copyright (c) Steve Scherf et al.
# Submitted via: CDex 1.70beta2
#
DISCID=86086a0b
DTITLE=Clay Walker - Hypnotize The Moon
DYEAR=1995
DGENRE=Country
TTITLE0=Who Needs You Baby ( 1995 ) - Clay Walker
TTITLE1=I Won't Have The Heart ( 1995 ) - Clay Walker
TTITLE2=Let Me Take That Heartache ( Off Your Hands ) ( 1995 ) - Clay Walker
TTITLE3=Hypnotize The Moon ( 1995 ) - Clay Walker
TTITLE4=Hand Me Down Heart ( 1995 ) - Clay Walker
TTITLE5=Only On Days That End In Y ( 1995 ) - Clay Walker
TTITLE6=Where Were You ( 1995 ) - Clay Walker
TTITLE7=Loving You Comes Naturally To Me ( 1995 ) - Clay Walker
TTITLE8=Bury The Shovel ( 1995 ) - Clay Walker
TTITLE9=A Cowboy's Toughest Ride ( 1995 ) - Clay Walker
TTITLE10=Love Me Like You Love Me ( 1995 ) - Clay Walker
EXTD=YEAR: 1995
EXTT0=
EXTT1=
EXTT2=
EXTT3=
EXTT4=
EXTT5=
EXTT6=
EXTT7=
EXTT8=
EXTT9=
EXTT10=
PLAYORDER=
